PathFileType  4	(X/Y/Z) C:\Users\antoi\Documents\MyRepositories\mobilecap\ResultsAnalysis
DataRate	CameraRate	NumFrames	NumMarkers	Units	OrigDataRate	OrigDataStartFrame	OrigNumFrames
100.0	100.0	7	51	mm	100.0	1	184
Frame#	Time	r_knee			r_shank_antsup			r_ankle			r_calc			r_5meta			r_toe			L_knee			L_shank_antsup			L_ankle			L_calc			L_5meta			L_toe			r_sh2			r_sh3			r_sh4			L_sh2			L_sh3			r_thigh1			r_thigh2			r_thigh3			r_thigh4			r_thigh5			L_thigh1			L_thigh2			L_thigh3			L_thigh4			r.ASIS			r.PSIS			L.ASIS			L.PSIS			C7			R_Shoulder			L_Shoulder			R_Sternum			L_Sternum			R_humerus			R_elbow_med			R_elbow_lat			R_forearm			R_wrist_radius			R_wrist_ulna			L_humerus			L_elbow_med			L_elbow_lat			L_forearm			L_wrist_radius			L_wrist_ulna			R_HJC			L_HJC			R_HJC_reg			L_HJC_reg			
		X1	Y1	Z1	X2	Y2	Z2	X3	Y3	Z3	X4	Y4	Z4	X5	Y5	Z5	X6	Y6	Z6	X7	Y7	Z7	X8	Y8	Z8	X9	Y9	Z9	X10	Y10	Z10	X11	Y11	Z11	X12	Y12	Z12	X13	Y13	Z13	X14	Y14	Z14	X15	Y15	Z15	X16	Y16	Z16	X17	Y17	Z17	X18	Y18	Z18	X19	Y19	Z19	X20	Y20	Z20	X21	Y21	Z21	X22	Y22	Z22	X23	Y23	Z23	X24	Y24	Z24	X25	Y25	Z25	X26	Y26	Z26	X27	Y27	Z27	X28	Y28	Z28	X29	Y29	Z29	X30	Y30	Z30	X31	Y31	Z31	X32	Y32	Z32	X33	Y33	Z33	X34	Y34	Z34	X35	Y35	Z35	X36	Y36	Z36	X37	Y37	Z37	X38	Y38	Z38	X39	Y39	Z39	X40	Y40	Z40	X41	Y41	Z41	X42	Y42	Z42	X43	Y43	Z43	X44	Y44	Z44	X45	Y45	Z45	X46	Y46	Z46	X47	Y47	Z47	X48	Y48	Z48	X49	Y49	Z49	X50	Y50	Z50	X51	Y51	Z51	

1	0.00000000	-72.67514	585.54112	-118.47564	-3.47322	453.10114	-127.54033	56.62700	89.64604	-149.68934	14.12600	59.80621	-218.02571	198.87420	77.25936	-113.40116	226.54365	122.64068	-157.06159	-477.39006	590.62102	-418.48409	-538.74175	394.20751	-390.14623	-784.85803	191.45822	-361.28720	-842.84148	200.54963	-291.29266	-720.18691	38.52184	-387.13682	-667.26897	51.15004	-332.69607	30.13862	345.51713	-138.79403	-65.33327	427.40393	-89.22183	-35.61804	318.39046	-94.50855	-601.89531	437.98220	-437.94338	-674.29202	349.25546	-410.28026	-146.08257	862.45265	-77.99496	-91.57866	766.58016	-86.11224	-134.98456	716.08036	-80.24874	-246.78790	814.30457	-101.54758	-189.07122	709.95260	-101.50028	-407.66615	889.85098	-442.20199	-457.26177	760.72981	-438.23199	-304.42082	847.02079	-448.08500	-353.99084	721.49230	-442.73635	-176.55661	1130.35829	-137.45927	-373.25690	1152.31384	-199.60542	-215.81014	1107.50130	-418.34631	-382.56425	1157.36939	-289.38337	-311.29253	1637.17451	-301.66112	-232.62835	1589.86086	-124.69210	-252.36516	1584.90527	-479.11219	-174.95006	1539.33898	-274.51846	-175.11198	1539.35782	-330.39051	-312.37261	1331.47826	-46.13916	-430.80917	1250.21015	-78.70246	-410.74322	1266.55149	-8.83897	-360.73325	1055.24226	12.31523	-348.23925	960.37140	8.17019	-378.09964	963.78773	33.63021	-250.82731	1282.53466	-519.69403	-344.94489	1212.72078	-473.05989	-320.60721	1204.66096	-543.63748	-246.67351	1010.64566	-561.01558	-221.25200	934.97573	-549.41499	-248.86986	936.38919	-572.04157	-256.96984	1031.76510	-160.08827	-293.48801	1023.22166	-353.97069	-249.57311	1022.57531	-175.89503	-268.90781	1033.07763	-362.39562	
2	0.01000000	-58.66829	586.98572	-117.47827	9.33050	453.14951	-126.93869	60.98488	88.63067	-148.94899	16.92253	61.35372	-217.16345	203.21015	70.25244	-114.36881	232.03849	114.78473	-158.22970	-459.07584	588.57160	-420.31329	-524.03091	393.54722	-391.75578	-775.06434	197.37284	-362.23551	-832.15887	209.58912	-292.17543	-718.35937	41.26798	-386.99702	-664.93135	51.33166	-332.80312	40.82773	344.96426	-138.25777	-52.96696	428.81771	-88.54007	-25.48527	319.11799	-93.94274	-586.43620	438.72074	-439.35103	-660.87068	351.96191	-411.47480	-132.20173	863.85459	-76.99858	-77.53172	768.05625	-84.92835	-121.23792	717.53068	-79.40826	-232.86665	815.94784	-101.22501	-175.33308	711.49551	-100.91131	-392.43564	888.27247	-441.48476	-440.77005	758.81206	-438.46761	-288.84811	846.46442	-448.70945	-337.08300	720.42470	-444.16634	-162.80083	1129.47845	-136.89663	-359.44467	1152.59105	-199.15446	-201.41979	1107.59183	-417.83503	-368.50949	1157.01716	-289.37505	-296.89916	1638.17459	-295.93323	-218.06140	1588.21525	-119.80922	-238.93775	1587.35398	-474.42752	-160.49685	1539.81812	-270.06525	-161.12397	1540.38426	-326.03409	-297.13184	1329.29800	-43.26389	-416.06054	1247.89719	-76.21427	-395.49082	1263.73735	-6.43610	-346.78146	1051.99453	13.26709	-334.52711	957.16254	8.41295	-364.65204	960.41353	33.86687	-239.96339	1285.16278	-516.58303	-334.35417	1215.90751	-470.10070	-310.19290	1207.89718	-540.65365	-237.94014	1013.37893	-559.23264	-213.23114	937.34121	-548.05868	-240.82805	939.10999	-570.73900	-243.43630	1031.26783	-159.86194	-279.51310	1023.21871	-353.84794	-236.60647	1023.50113	-174.78887	-255.35426	1032.66497	-361.33333	
3	0.02000000	-44.56600	588.64020	-116.48051	22.09115	453.36571	-126.33810	65.01281	87.76656	-148.18033	19.47986	62.86142	-216.28943	207.16047	63.75700	-115.22344	237.10747	107.47366	-159.23651	-440.27255	586.45745	-422.12054	-508.95839	392.91010	-393.27898	-764.80087	203.50838	-363.17011	-820.92550	218.89785	-293.07547	-716.23079	44.42786	-386.90443	-662.30586	51.78049	-332.99242	51.35599	344.58624	-137.70383	-40.53000	430.44936	-87.65739	-15.31724	320.09442	-93.08239	-570.46120	439.47236	-440.74572	-646.96271	354.71854	-412.67979	-118.39129	865.48460	-76.00565	-63.51152	769.78488	-83.74156	-107.42057	719.21025	-78.52999	-218.99886	817.68400	-100.76764	-161.53659	713.18858	-100.20478	-376.98469	886.62167	-440.86129	-423.88912	756.79189	-438.74579	-272.99908	845.95318	-449.18264	-319.75408	719.36949	-445.47856	-149.27811	1129.03279	-136.20195	-345.83393	1153.07548	-198.91930	-187.02907	1107.88382	-417.19530	-354.62168	1156.86127	-289.53547	-282.52089	1639.31443	-290.29418	-203.56759	1586.80729	-114.97343	-225.38948	1590.00295	-469.78889	-146.12452	1540.45536	-265.63208	-147.18790	1541.54199	-321.68144	-281.86790	1327.29600	-40.46764	-401.20136	1245.78560	-73.82495	-380.17113	1261.11713	-4.08323	-332.64706	1048.97722	14.22784	-320.65255	954.17153	8.71430	-351.01043	957.29002	34.15320	-229.04748	1288.02134	-513.53552	-323.65492	1219.34372	-467.12180	-299.76325	1211.39038	-537.66597	-229.17947	1016.35763	-557.40468	-205.22244	939.95634	-546.65173	-232.76775	942.09563	-569.37093	-230.09003	1031.12658	-159.55763	-265.50217	1023.40257	-353.67597	-223.68422	1024.68032	-173.58112	-241.78477	1032.48960	-360.16791	
4	0.03000000	-30.35614	590.61571	-115.48842	34.72661	453.84637	-125.74828	68.47432	87.16499	-147.37875	21.63347	64.29416	-215.40768	210.46109	58.15950	-115.89159	241.45448	101.10437	-159.99179	-420.60897	584.24835	-423.88056	-493.22945	392.33092	-394.65278	-753.66230	210.02703	-364.08676	-808.66055	228.67229	-294.01389	-713.52469	48.34111	-386.90137	-659.14854	52.73260	-333.32647	61.57205	344.49000	-137.13382	-28.02779	432.41763	-86.46231	-5.13932	321.46617	-91.76258	-553.56841	440.26096	-442.11227	-632.17141	357.57092	-413.90205	-104.72824	867.46572	-75.02185	-49.57292	771.90157	-82.55433	-93.53397	721.24272	-77.59618	-205.25369	819.55735	-100.09737	-147.68268	715.10891	-99.31656	-361.14194	884.85678	-440.40729	-406.31768	754.60179	-439.10295	-256.66588	845.53875	-449.38265	-301.68379	718.35567	-446.57418	-136.14682	1129.33982	-135.27799	-332.56376	1153.91067	-199.03851	-172.65834	1108.53247	-416.33496	-341.02175	1157.05905	-289.97187	-268.18601	1640.69483	-284.82002	-189.22692	1585.82687	-110.23330	-211.62321	1592.99893	-465.22529	-131.90278	1541.36598	-261.23595	-133.33194	1542.93123	-317.33178	-266.58801	1325.62318	-37.81247	-386.15386	1244.03868	-71.61275	-364.76511	1258.85691	-1.82485	-318.19878	1046.38987	15.20659	-306.47825	951.58759	9.12110	-337.01875	954.62586	34.52995	-218.03741	1291.28728	-510.60573	-312.78288	1223.23972	-464.12960	-289.30754	1215.34429	-534.68258	-220.36703	1019.77599	-555.49865	-197.22445	943.02024	-545.15224	-224.66376	945.55511	-567.88454	-217.05833	1031.60058	-159.11758	-251.43909	1023.91793	-353.41402	-210.82368	1026.26777	-172.21446	-228.18660	1032.73881	-358.84266	
5	0.04000000	-16.15995	592.87384	-114.52038	47.09169	454.57959	-125.19220	71.27678	86.87435	-146.57774	23.33266	65.62378	-214.54706	213.03035	53.64977	-116.36039	244.97984	95.84650	-160.50812	-399.91888	581.97215	-425.56142	-476.67231	391.86135	-395.85236	-741.36470	216.98928	-364.99532	-795.02130	238.97807	-295.01452	-710.00429	53.21174	-387.02148	-655.27684	54.35951	-333.83889	71.33682	344.67755	-136.57825	-15.59150	434.69056	-84.98369	4.92191	323.22157	-90.02180	-535.55072	441.12602	-443.43325	-616.26124	360.55499	-415.14222	-91.30298	869.76199	-74.05529	-35.82242	774.36128	-81.37697	-79.69608	723.59138	-76.62116	-191.72674	821.54136	-99.22534	-133.86985	717.22435	-98.26500	-344.82721	882.98733	-440.16384	-387.91193	752.23601	-439.56116	-239.76411	845.28196	-449.23907	-282.73069	717.43848	-447.38771	-123.45668	1130.52539	-134.08717	-319.68312	1155.14118	-199.52599	-158.36689	1109.61866	-415.22287	-327.76696	1157.70038	-290.69063	-253.95059	1642.35405	-279.56804	-175.13167	1585.38176	-105.63806	-197.59634	1596.39781	-460.74355	-117.89437	1542.59659	-256.89318	-119.56780	1544.59901	-312.98517	-251.35403	1324.38453	-35.33089	-370.91378	1242.75385	-69.62032	-349.33678	1257.07191	0.30601	-303.39584	1044.37573	16.21250	-291.92122	949.54875	9.66159	-322.59360	952.55769	35.02216	-206.91535	1295.04381	-507.83183	-301.74951	1227.72818	-461.17159	-278.82666	1219.86535	-531.73448	-211.48561	1023.73579	-553.50330	-189.21649	946.64148	-543.53506	-216.48477	949.59660	-566.25112	-204.38256	1032.78975	-158.51871	-237.35020	1024.84101	-353.03799	-198.01427	1028.27203	-170.69776	-214.56825	1033.51507	-357.36932	
6	0.05000000	-2.21104	595.24474	-113.61132	58.99276	455.45493	-124.70319	73.46465	86.88211	-145.84987	24.63233	66.83024	-213.76088	214.94986	50.22273	-116.67292	247.76508	91.65224	-160.88238	-378.23682	579.71466	-427.12420	-459.23647	391.56522	-396.89393	-727.75963	224.35261	-365.92015	-779.82532	249.74393	-296.09979	-705.47674	59.08760	-387.28620	-650.55957	56.74458	-334.53806	80.52999	345.05217	-136.09215	-3.47083	437.10306	-83.38698	14.64066	325.20444	-88.09522	-516.38804	442.11955	-444.69315	-599.16225	363.69722	-416.39608	-78.20237	872.19890	-73.11352	-22.40587	776.95616	-80.22731	-66.11786	726.07888	-75.65094	-178.51855	823.55397	-98.24646	-120.27770	719.41279	-97.14591	-328.04922	881.07486	-440.12577	-368.68738	749.75699	-440.12054	-222.33165	845.24934	-448.73965	-262.93248	716.69650	-447.89297	-111.14937	1132.51087	-132.65672	-307.14883	1156.72012	-200.26916	-144.24028	1111.15097	-413.89065	-314.84812	1158.80024	-291.59332	-239.88890	1644.27060	-274.57188	-161.36696	1585.48758	-101.22781	-183.32706	1600.16048	-456.33030	-104.14938	1544.12756	-252.61991	-105.90581	1546.53611	-308.64950	-236.27237	1323.63201	-33.01719	-355.56427	1241.95385	-67.84824	-334.02068	1255.81347	2.29505	-288.28041	1043.00751	17.25589	-276.95404	948.12988	10.34614	-307.72254	951.13890	35.63744	-195.68555	1299.27294	-505.22951	-290.63698	1232.84761	-458.32820	-268.32453	1224.94911	-528.87847	-202.51715	1028.23525	-551.43049	-181.15242	950.82701	-541.79375	-208.19001	954.21438	-564.46949	-192.01712	1034.62857	-157.77550	-223.30114	1026.17987	-352.54492	-185.22631	1030.57962	-169.09561	-200.96697	1034.82987	-355.81449	
7	0.06000000	11.20877	597.49696	-112.81279	70.22190	456.31019	-124.31534	75.16924	87.13511	-145.29099	25.64788	67.90231	-213.11557	216.38863	47.73736	-116.90254	249.99681	88.33450	-161.24201	-355.74212	577.59829	-428.52589	-440.95995	391.50746	-397.82351	-712.83110	231.99870	-366.89411	-763.05495	260.78622	-297.28079	-699.79077	65.87010	-387.70390	-644.88965	59.87564	-335.41974	89.05323	345.46133	-135.73761	8.01676	439.42691	-81.92007	23.73085	327.18277	-86.33317	-496.19614	443.29654	-445.88219	-580.94002	367.01558	-417.65707	-65.48898	874.54167	-72.20425	-9.47281	779.40213	-79.13288	-53.03465	728.46562	-74.75254	-165.70435	825.49807	-97.29993	-107.11844	721.52293	-96.10007	-310.88691	879.21554	-440.23945	-348.78558	747.28107	-440.75532	-204.49903	845.50298	-447.92362	-242.46157	716.21671	-448.09963	-99.09839	1135.05908	-131.06803	-294.85806	1158.54743	-201.06886	-130.36867	1113.08726	-412.41574	-302.21065	1160.30881	-292.50663	-226.07813	1646.38397	-269.84197	-147.99042	1586.08022	-97.02406	-168.89297	1604.17508	-451.96449	-90.70051	1545.89638	-248.43364	-92.37458	1548.69014	-304.34801	-221.47165	1323.36432	-30.82856	-340.26696	1241.59706	-66.25905	-318.98497	1255.06777	4.15006	-272.95127	1042.28522	18.34826	-261.59789	947.34206	11.17221	-292.45087	950.34586	36.36796	-184.36971	1303.87334	-502.79112	-279.57323	1238.54027	-455.69147	-257.79878	1230.48952	-526.19312	-193.43826	1033.18059	-549.31038	-172.96864	955.49077	-539.93962	-199.73262	959.30112	-562.56444	-179.86102	1036.92801	-156.93297	-209.38509	1027.89280	-351.95371	-172.43805	1033.02828	-167.49781	-187.45393	1036.62047	-354.26394	
